<?xml version="1.0" standalone="no"?>
<!DOCTYPE svg PUBLIC "-//W3C//DTD SVG 1.1//EN" "http://www.w3.org/Graphics/SVG/1.1/DTD/svg11.dtd" >
<svg xmlns="http://www.w3.org/2000/svg" xmlns:xlink="http://www.w3.org/1999/xlink" version="1.1" viewBox="-10 0 268 256">
  <g transform="matrix(1 0 0 -1 0 204)">
   <path fill="currentColor"
d="M77 158zM175 174q3 -1 7 -4q5 -3 7 -5q7 -4 0 -7q-5 -2 -7 -41q16 2 23 2q5 17 15 7q3 -3 13 -8q6 -3 11 -7q1 -1 2 -1q4 -6 -4 -7q-4 0 -14 7q-9 6 -17 6q-17 -1 -29 -3q-1 -6 -3 -20q-1 -6 -1 -8q5 0 5 -1q2 -5 -3 -5q-5 -1 -18 -3q-7 -1 -10 -2q1 -3 0 -4q-2 0 -4 2
q-10 11 -5 14t3 21q-3 -1 -9 -2q-12 -2 -23 -4q0 -35 -5 -74q55 10 88 12q6 10 13 5q3 -2 13 -7t13 -8q3 -5 -5 -8q-6 -2 -16 9q-6 7 -18 7q-24 -1 -82 -13q-5 -1 -11 -9q-2 -3 -6 0q-5 4 -3 9q4 7 6 6q5 0 5 6q5 30 3 64q-2 0 -3.25 -0.25q-9.75 -3.75 -13.75 -4.75
l-4.25 0.75l-11.75 4.25h11l22 4q-2 22 -7 35q-2 5 1 2q14 -9 12 -13q-1 -2 -1 -23q8 2 20 4q8 1 12 2q-2 28 -9 43q-2 4 1 1q14 -10 13 -15t0 -17v-11l25 4q5 48 -3 56q-3 3 2 2zM151 108q1 -10 1 -30q4 1 10 2l12 3q1 4 1 14q1 10 1 15zM53 130q-1 4 2 2q9 -8 6 -9
q-1 -3 -1 -13q-1 -5 -1 -9q7 3 15 5q2 1 3 -1q1 -1 -1 -2q-8 -6 -17 -12q-1 -15 -1 -36q6 6 15 16q6 7 10 11q6 6 1 -1q-20 -28 -45 -52q-10 -11 -21 -7q-4 0 0 2q8 -1 33 25q0 12 -1 14q-2 4 1 6q2 1 3 15q0 3 -2 3q-9 -6 -19 -6q-3 0 -3 1l2 2q3 1 7 4q10 5 16 9
q2 28 -2 33zM73 157q2 0 5 -1q4 0 6 -1q3 -3 0 -4q-8 3 -33 -9q-9 -5 -23 -4q-4 2 0 2q14 2 32 10q7 2 8 5q0 4 5 2z" />
  </g>

</svg>
